<?xml version="1.0" encoding="UTF-8"?> <svg xmlns="http://www.w3.org/2000/svg" width="39" height="39" viewBox="0 0 39 39" fill="none"> <circle cx="19.5" cy="19.5" r="19.5" fill="white"></circle> <path d="M20 9.00001C25.523 9.00001 30 13.477 30 19C30 24.523 25.523 29 20 29C18.2328 29.0028 16.4967 28.5352 14.97 27.645L10.004 29L11.356 24.032C10.4651 22.5049 9.99706 20.768 10 19C10 13.477 14.477 9.00001 20 9.00001ZM16.592 14.3L16.392 14.308C16.2625 14.3159 16.136 14.3499 16.02 14.408C15.9115 14.4694 15.8125 14.5462 15.726 14.636C15.606 14.749 15.538 14.847 15.465 14.942C15.0951 15.4229 14.896 16.0133 14.899 16.62C14.901 17.11 15.029 17.587 15.229 18.033C15.638 18.935 16.311 19.89 17.199 20.775C17.413 20.988 17.623 21.202 17.849 21.401C18.9524 22.3725 20.2673 23.073 21.689 23.447L22.257 23.534C22.442 23.544 22.627 23.53 22.813 23.521C23.1042 23.506 23.3886 23.4271 23.646 23.29C23.777 23.2225 23.9048 23.1491 24.029 23.07C24.029 23.07 24.072 23.042 24.154 22.98C24.289 22.88 24.372 22.809 24.484 22.692C24.567 22.606 24.639 22.505 24.694 22.39C24.772 22.227 24.85 21.916 24.882 21.657C24.906 21.459 24.899 21.351 24.896 21.284C24.892 21.177 24.803 21.066 24.706 21.019L24.124 20.758C24.124 20.758 23.254 20.379 22.722 20.137C22.6663 20.1127 22.6067 20.0988 22.546 20.096C22.4776 20.089 22.4084 20.0967 22.3433 20.1186C22.2781 20.1405 22.2183 20.1761 22.168 20.223C22.163 20.221 22.096 20.278 21.373 21.154C21.3315 21.2098 21.2743 21.2519 21.2088 21.2751C21.1433 21.2982 21.0723 21.3013 21.005 21.284C20.9399 21.2665 20.876 21.2445 20.814 21.218C20.69 21.166 20.647 21.146 20.562 21.11C19.9881 20.8595 19.4567 20.5211 18.987 20.107C18.861 19.997 18.744 19.877 18.624 19.761C18.2306 19.3842 17.8877 18.958 17.604 18.493L17.545 18.398C17.5026 18.3342 17.4684 18.2653 17.443 18.193C17.405 18.046 17.504 17.928 17.504 17.928C17.504 17.928 17.747 17.662 17.86 17.518C17.97 17.378 18.063 17.242 18.123 17.145C18.241 16.955 18.278 16.76 18.216 16.609C17.936 15.925 17.646 15.244 17.348 14.568C17.289 14.434 17.114 14.338 16.955 14.319C16.901 14.313 16.847 14.307 16.793 14.303C16.6587 14.2963 16.5241 14.2977 16.39 14.307L16.591 14.299L16.592 14.3Z" fill="#59D62D"></path> </svg> 